<svg width="24" height="23" viewBox="0 0 24 23" fill="none" xmlns="http://www.w3.org/2000/svg">
<g id="Iconly/Light/Filter">
<g id="Filter">
<path id="Stroke 1" d="M10.33 15.4658H4.0293" stroke="white" stroke-width="1.5" stroke-linecap="round" stroke-linejoin="round"/>
<path id="Stroke 3" d="M13.1406 6.43167H19.4413" stroke="white" stroke-width="1.5" stroke-linecap="round" stroke-linejoin="round"/>
<path id="Stroke 5" fill-rule="evenodd" clip-rule="evenodd" d="M8.72629 6.38122C8.72629 5.17357 7.66813 4.19434 6.36314 4.19434C5.05816 4.19434 4 5.17357 4 6.38122C4 7.58886 5.05816 8.5681 6.36314 8.5681C7.66813 8.5681 8.72629 7.58886 8.72629 6.38122Z" stroke="white" stroke-width="1.5" stroke-linecap="round" stroke-linejoin="round"/>
<path id="Stroke 7" fill-rule="evenodd" clip-rule="evenodd" d="M20.0002 15.4293C20.0002 14.2217 18.9429 13.2424 17.6379 13.2424C16.3321 13.2424 15.2739 14.2217 15.2739 15.4293C15.2739 16.637 16.3321 17.6162 17.6379 17.6162C18.9429 17.6162 20.0002 16.637 20.0002 15.4293Z" stroke="white" stroke-width="1.5" stroke-linecap="round" stroke-linejoin="round"/>
</g>
</g>
</svg>
