<svg width="574" height="111" viewBox="0 0 574 111" fill="none" xmlns="http://www.w3.org/2000/svg">
<g clip-path="url(#clip0)">
<path fill-rule="evenodd" clip-rule="evenodd" d="M32.8937 28.1286C36.5488 24.548 42.3963 24.548 46.0514 28.1286L54.7047 36.6053C58.468 40.2918 58.468 46.3507 54.7047 50.0372L39.6241 64.8101L50.4396 75.4049C52.5002 77.4234 52.5343 80.7302 50.5158 82.7909C48.4972 84.8515 45.1904 84.8856 43.1298 82.867L16.9282 57.2001C13.1649 53.5136 13.1649 47.4548 16.9282 43.7683L32.8937 28.1286ZM32.1604 57.4986L46.6331 43.3213L39.4725 36.3068L24.9998 50.4842L32.1604 57.4986Z" fill="#3CEAAA"/>
<path fill-rule="evenodd" clip-rule="evenodd" d="M54.8301 35.2915C58.4853 31.7109 64.3327 31.7109 67.9879 35.2915L76.6412 43.7682C80.4045 47.4547 80.4045 53.5136 76.6412 57.2001L50.4396 82.867C48.379 84.8855 45.0722 84.8514 43.0536 82.7908C41.035 80.7302 41.0691 77.4234 43.1298 75.4048L53.9453 64.81L46.1768 57.2001C42.4135 53.5136 42.4135 47.4547 46.1768 43.7682L54.8301 35.2915ZM61.409 57.4986L68.5696 50.4842L61.409 43.4697L54.2484 50.4842L61.409 57.4986Z" fill="#03BCE4"/>
<path opacity="0.95" d="M54.2443 50.5018L46.6378 43.277L39.342 50.4422L46.768 57.8301L54.2443 50.5018Z" fill="#00A4E1"/>
</g>
<path d="M104.435 76.5656H111.833V62.2668H121.274C129.113 62.2668 134.358 57.519 134.358 50.3972C134.358 43.3858 129.113 38.6931 121.274 38.6931H104.435V76.5656ZM111.833 55.6419V45.3181H121.274C124.697 45.3181 126.96 47.3608 126.96 50.3972C126.96 53.544 124.697 55.6419 121.274 55.6419H111.833ZM148.624 77.3386C155.359 77.3386 161.101 73.2532 162.923 67.1803H156.187C154.918 69.9407 151.881 71.8178 148.624 71.8178C144.318 71.8178 141.005 68.8918 140.398 64.5856H163.033L163.585 64.0335V62.7637C163.585 54.0409 157.568 48.1889 148.624 48.1889C139.68 48.1889 133.663 54.0409 133.663 62.7637C133.663 71.4865 139.68 77.3386 148.624 77.3386ZM140.84 59.0648C142.054 55.8627 145.146 53.7096 148.624 53.7096C152.102 53.7096 155.194 55.8627 156.408 59.0648H140.84ZM167.27 76.5656H173.895V60.2242C173.895 56.5252 176.821 54.0409 181.238 54.0409H183.501V48.9618C182.729 48.6305 181.569 48.4097 180.575 48.4097C178.036 48.4097 175.331 49.9555 173.895 52.219V48.9618H167.27V76.5656ZM203.109 48.1889C199.742 48.1889 196.043 49.7347 193.945 51.9982V48.9618H187.32V86.8343H193.945V73.5292C196.043 75.7927 199.742 77.3386 203.109 77.3386C211.832 77.3386 217.684 71.4865 217.684 62.7637C217.684 54.0409 211.832 48.1889 203.109 48.1889ZM202.447 54.0409C207.581 54.0409 211.059 57.519 211.059 62.7637C211.059 68.0084 207.581 71.4865 202.447 71.4865C197.368 71.4865 193.945 68.0084 193.945 62.7637C193.945 57.519 197.368 54.0409 202.447 54.0409ZM235.244 77.3386C241.979 77.3386 247.721 73.2532 249.543 67.1803H242.808C241.538 69.9407 238.501 71.8178 235.244 71.8178C230.938 71.8178 227.625 68.8918 227.018 64.5856H249.653L250.205 64.0335V62.7637C250.205 54.0409 244.188 48.1889 235.244 48.1889C226.3 48.1889 220.283 54.0409 220.283 62.7637C220.283 71.4865 226.3 77.3386 235.244 77.3386ZM227.46 59.0648C228.674 55.8627 231.766 53.7096 235.244 53.7096C238.722 53.7096 241.814 55.8627 243.028 59.0648H227.46ZM264.267 77.3386C266.034 77.3386 267.911 77.0073 268.96 76.5656V71.8178H264.157C262.722 71.8178 261.728 70.8792 261.728 69.4991V54.4826H268.684V48.9618H261.728V38.6931H255.103V48.9618H250.686V54.4826H255.103V69.4991C255.103 74.1917 258.802 77.3386 264.267 77.3386ZM299.474 48.9618H292.849V65.3585C292.849 69.0022 290.144 71.4865 286.114 71.4865C282.084 71.4865 279.379 69.0022 279.379 65.3585V48.9618H272.754V66.1314C272.754 72.8667 277.833 77.3386 285.341 77.3386C288.046 77.3386 291.083 76.2344 292.849 74.523V76.5656H299.474V48.9618ZM317.537 77.3386C320.794 77.3386 324.383 75.8479 326.48 73.5844V76.5656H333.105V48.9618H326.48V51.943C324.383 49.6795 320.794 48.1889 317.537 48.1889C308.924 48.1889 303.183 54.0409 303.183 62.7637C303.183 71.4865 308.924 77.3386 317.537 77.3386ZM318.199 71.4865C313.175 71.4865 309.808 68.0084 309.808 62.7637C309.808 57.519 313.175 54.0409 318.199 54.0409C323.168 54.0409 326.48 57.519 326.48 62.7637C326.48 68.0084 323.168 71.4865 318.199 71.4865ZM337.923 76.5656H344.548V38.6931H337.923V76.5656ZM363.534 76.5656H370.932V62.2668H380.373C388.212 62.2668 393.457 57.519 393.457 50.3972C393.457 43.3858 388.212 38.6931 380.373 38.6931H363.534V76.5656ZM370.932 55.6419V45.3181H380.373C383.796 45.3181 386.059 47.3608 386.059 50.3972C386.059 53.544 383.796 55.6419 380.373 55.6419H370.932ZM396.076 76.5656H402.701V60.2242C402.701 56.5252 405.627 54.0409 410.044 54.0409H412.307V48.9618C411.534 48.6305 410.375 48.4097 409.381 48.4097C406.842 48.4097 404.137 49.9555 402.701 52.219V48.9618H396.076V76.5656ZM427.233 77.3386C436.177 77.3386 442.195 71.4865 442.195 62.7637C442.195 54.0409 436.177 48.1889 427.233 48.1889C418.29 48.1889 412.272 54.0409 412.272 62.7637C412.272 71.4865 418.29 77.3386 427.233 77.3386ZM427.233 71.4865C422.265 71.4865 418.897 68.0084 418.897 62.7637C418.897 57.519 422.265 54.0409 427.233 54.0409C432.202 54.0409 435.57 57.519 435.57 62.7637C435.57 68.0084 432.202 71.4865 427.233 71.4865ZM456.796 77.3386C458.562 77.3386 460.439 77.0073 461.488 76.5656V71.8178H456.685C455.25 71.8178 454.256 70.8792 454.256 69.4991V54.4826H461.212V48.9618H454.256V38.6931H447.631V48.9618H443.215V54.4826H447.631V69.4991C447.631 74.1917 451.33 77.3386 456.796 77.3386ZM478.061 77.3386C487.005 77.3386 493.022 71.4865 493.022 62.7637C493.022 54.0409 487.005 48.1889 478.061 48.1889C469.117 48.1889 463.1 54.0409 463.1 62.7637C463.1 71.4865 469.117 77.3386 478.061 77.3386ZM478.061 71.4865C473.092 71.4865 469.725 68.0084 469.725 62.7637C469.725 57.519 473.092 54.0409 478.061 54.0409C483.03 54.0409 486.397 57.519 486.397 62.7637C486.397 68.0084 483.03 71.4865 478.061 71.4865ZM510.565 77.3386C518.073 77.3386 523.87 72.5355 525.029 65.3585H518.68C517.852 69.0022 514.595 71.4865 510.565 71.4865C505.596 71.4865 502.228 68.0084 502.228 62.7637C502.228 57.519 505.596 54.0409 510.565 54.0409C514.54 54.0409 517.742 56.4148 518.625 59.8929H524.974C523.759 52.8815 517.962 48.1889 510.565 48.1889C501.621 48.1889 495.603 54.0409 495.603 62.7637C495.603 71.4865 501.621 77.3386 510.565 77.3386ZM542.583 77.3386C551.527 77.3386 557.544 71.4865 557.544 62.7637C557.544 54.0409 551.527 48.1889 542.583 48.1889C533.639 48.1889 527.622 54.0409 527.622 62.7637C527.622 71.4865 533.639 77.3386 542.583 77.3386ZM542.583 71.4865C537.614 71.4865 534.247 68.0084 534.247 62.7637C534.247 57.519 537.614 54.0409 542.583 54.0409C547.552 54.0409 550.919 57.519 550.919 62.7637C550.919 68.0084 547.552 71.4865 542.583 71.4865ZM560.69 76.5656H567.315V38.6931H560.69V76.5656Z" fill="white"/>
<defs>
<clipPath id="clip0">
<rect width="82.8116" height="82.8116" fill="white" transform="translate(6 12.6599)"/>
</clipPath>
</defs>
</svg>
